<?xml version="1.0" standalone="no"?>
<!DOCTYPE svg PUBLIC "-//W3C//DTD SVG 20010904//EN"
 "http://www.w3.org/TR/2001/REC-SVG-20010904/DTD/svg10.dtd">
<svg version="1.0" xmlns="http://www.w3.org/2000/svg"
 width="200" height="200" viewBox="150 0 2816.000000 1516.000000">

<g transform="translate(0.000000,536.000000) scale(0.100000,-0.100000)"
fill="#2563EB" stroke="none">
<path d="M4145 10256 c107 -40 206 -113 279 -206 24 -30 103 -161 176 -290 72
-129 153 -271 180 -315 26 -44 118 -203 205 -354 142 -248 156 -276 141 -287
-10 -7 -94 -56 -187 -110 -93 -54 -167 -99 -165 -101 2 -2 243 -46 537 -98
294 -53 581 -104 638 -115 58 -11 105 -19 106 -17 1 1 45 128 98 282 97 285
278 796 315 893 26 66 37 70 -184 -59 -94 -54 -175 -99 -180 -99 -9 0 -135
208 -310 513 -57 98 -119 198 -138 222 -48 58 -128 109 -219 140 l-76 25 -638
-1 -638 0 60 -23z"/>
<path d="M3846 10146 c-119 -50 -145 -81 -334 -402 -267 -456 -492 -844 -492
-851 0 -9 924 -555 937 -554 4 0 84 130 177 288 93 159 242 412 332 565 l164
276 -131 229 c-72 125 -148 252 -170 280 -118 158 -333 232 -483 169z"/>
<path d="M20086 8555 c-94 -19 -159 -42 -241 -83 -225 -111 -376 -291 -452
-538 -25 -83 -27 -101 -27 -274 -1 -164 2 -194 22 -264 100 -347 360 -580 715
-642 111 -20 330 -14 422 10 88 24 182 63 250 104 56 34 215 176 215 192 0 4
-55 60 -123 123 l-123 116 -67 -64 c-119 -114 -253 -163 -417 -151 -150 10
-262 60 -358 160 -168 175 -210 467 -99 696 41 85 159 204 240 243 211 101
457 62 636 -100 l61 -55 43 38 c23 21 79 73 125 116 l83 78 -53 56 c-94 100
-251 189 -403 230 -85 23 -357 28 -449 9z"/>
<path d="M8246 8543 c-3 -3 -6 -404 -6 -890 l0 -883 53 -1 c28 0 234 0 457 1
443 2 496 7 644 61 259 94 430 276 512 544 26 84 28 102 28 280 0 180 -1 195
-27 280 -101 325 -335 528 -681 589 -84 15 -967 32 -980 19z m913 -338 c287
-68 452 -365 385 -693 -33 -165 -128 -292 -266 -357 -115 -55 -182 -65 -435
-65 l-223 0 0 565 0 565 238 0 c176 0 253 -4 301 -15z"/>
<path d="M16977 8423 c-4 -3 -7 -80 -7 -170 l0 -163 -105 0 -105 0 0 -145 0
-145 105 0 105 0 0 -327 c0 -362 7 -417 58 -520 57 -113 170 -184 325 -205
133 -18 310 16 379 72 l23 18 -43 131 c-24 72 -44 131 -46 131 -1 0 -22 -10
-47 -21 -26 -13 -71 -24 -109 -26 -79 -5 -124 15 -155 67 -19 33 -20 54 -23
358 l-3 322 170 0 171 0 0 145 0 145 -170 0 -170 0 0 170 0 170 -173 0 c-96 0
-177 -3 -180 -7z"/>
<path d="M23958 8422 l-128 -3 -2 -167 -3 -167 -103 -3 -103 -3 3 -137 3 -137
103 -3 102 -3 0 -337 c0 -368 6 -420 57 -515 82 -150 274 -228 488 -198 90 12
175 40 212 69 l21 17 -37 115 c-55 170 -43 154 -93 129 -62 -32 -172 -37 -215
-10 -66 42 -68 51 -71 409 l-3 322 170 0 171 0 0 140 c0 138 0 140 -22 142
-13 0 -88 2 -168 2 l-145 1 -3 173 -2 173 -53 -3 c-28 -2 -109 -4 -179 -6z"/>
<path d="M6165 8154 c-247 -146 -456 -268 -463 -273 -10 -5 15 -55 96 -192 60
-101 192 -323 292 -494 101 -170 202 -341 225 -380 l41 -70 257 -3 c198 -2
273 1 328 13 157 32 273 114 332 234 30 61 32 73 32 166 0 136 35 66 -473 935
-105 179 -197 326 -204 327 -7 0 -215 -118 -463 -263z"/>
<path d="M3065 8351 c-137 -27 -387 -74 -555 -105 -168 -31 -330 -62 -360 -69
l-55 -13 171 -97 c95 -54 179 -103 188 -110 17 -13 35 21 -261 -490 -128 -222
-152 -279 -160 -387 -11 -152 13 -218 195 -540 232 -413 465 -820 468 -817 1
1 -4 34 -13 72 -33 156 -1 328 95 505 39 73 620 1080 627 1088 1 1 87 -47 190
-108 104 -61 190 -109 192 -107 3 4 -206 617 -357 1050 -60 169 -64 177 -89
176 -14 0 -138 -22 -276 -48z"/>
<path d="M10649 8116 c-252 -53 -440 -230 -510 -481 -29 -104 -31 -277 -5
-380 64 -245 242 -418 501 -486 113 -30 317 -30 430 0 107 28 192 73 265 139
l61 54 -42 47 c-23 25 -69 74 -102 108 l-59 63 -41 -34 c-217 -175 -536 -122
-643 107 -13 29 -24 58 -24 65 0 9 104 12 489 12 l489 0 7 63 c8 77 -9 220
-36 301 -68 204 -230 358 -434 412 -83 22 -264 27 -346 10z m310 -311 c78 -43
140 -127 157 -213 l7 -32 -323 0 -322 0 7 33 c12 59 56 136 97 172 67 57 128
76 233 72 77 -2 98 -7 144 -32z"/>
<path d="M12035 8115 c-101 -19 -228 -80 -290 -140 -27 -27 -60 -74 -78 -113
-29 -61 -32 -76 -32 -162 0 -82 4 -103 26 -151 65 -139 172 -196 489 -264 182
-40 220 -63 220 -138 0 -151 -312 -162 -583 -20 -28 16 -55 29 -59 31 -10 5
-130 -249 -124 -263 7 -19 145 -82 238 -109 248 -71 537 -50 696 53 175 112
235 316 147 498 -61 124 -172 180 -488 248 -130 28 -165 42 -196 81 -47 60
-10 139 75 163 108 30 310 2 422 -59 30 -16 56 -29 57 -27 31 63 115 255 115
263 0 17 -126 71 -220 94 -115 28 -309 35 -415 15z"/>
<path d="M13455 8121 c-357 -58 -595 -332 -595 -686 0 -279 149 -510 404 -625
103 -47 186 -63 316 -63 201 0 330 47 452 161 63 59 146 167 136 177 -2 2 -66
37 -143 78 -140 75 -140 75 -155 54 -39 -57 -97 -109 -149 -134 -48 -24 -68
-28 -141 -28 -76 0 -92 4 -152 33 -79 39 -129 92 -172 181 -29 62 -31 73 -31
176 0 98 3 116 27 167 35 76 98 142 167 175 50 25 67 28 156 28 89 0 105 -3
151 -27 28 -15 76 -54 106 -88 l55 -60 129 75 c70 41 133 80 138 85 14 14 -56
111 -122 170 -67 60 -166 113 -252 135 -74 19 -251 28 -325 16z"/>
<path d="M14800 8124 c-107 -13 -225 -48 -321 -97 -57 -29 -107 -59 -112 -68
-8 -12 5 -44 53 -130 34 -63 64 -116 66 -118 2 -2 19 7 39 19 122 75 232 104
372 98 74 -3 108 -9 139 -26 57 -29 100 -82 119 -144 27 -93 46 -85 -222 -91
-206 -4 -248 -7 -313 -26 -142 -42 -241 -115 -290 -216 -22 -44 -25 -63 -25
-165 0 -104 3 -121 27 -172 70 -151 246 -242 463 -242 159 0 262 34 351 116
l44 41 1 -29 c1 -16 2 -47 3 -68 l2 -39 167 -3 167 -3 0 437 c0 487 -4 522
-64 649 -84 176 -258 269 -521 277 -60 3 -126 2 -145 0z m370 -856 c0 -52 -6
-83 -21 -114 -41 -86 -136 -144 -249 -152 -85 -6 -142 11 -190 55 -86 77 -75
199 23 250 53 27 84 31 265 32 l172 1 0 -72z"/>
<path d="M16515 8116 c-103 -19 -180 -59 -252 -132 l-63 -62 0 94 0 94 -172
-2 -173 -3 0 -670 0 -670 120 0 c66 -1 148 1 183 3 l62 4 0 341 c0 382 6 431
63 525 59 98 140 141 283 149 l94 6 -3 166 -2 166 -35 2 c-19 1 -67 -4 -105
-11z"/>
<path d="M18392 8119 c-245 -41 -440 -212 -518 -454 -54 -167 -42 -379 31
-533 117 -248 347 -382 655 -385 215 -2 373 50 491 161 l61 57 -102 108 -102
107 -34 -29 c-136 -120 -332 -144 -495 -61 -56 29 -117 93 -145 153 -44 95
-89 86 464 89 l487 3 3 95 c8 278 -130 527 -350 630 -131 61 -299 83 -446 59z
m245 -294 c55 -16 129 -75 161 -128 11 -18 27 -56 36 -84 l15 -53 -323 0 -324
0 9 41 c22 98 94 184 182 218 64 24 173 27 244 6z"/>
<path d="M21665 8121 c-141 -23 -265 -84 -359 -175 -225 -217 -277 -566 -128
-851 50 -95 164 -209 257 -257 293 -151 673 -118 883 77 l54 50 -102 108 -102
107 -34 -30 c-201 -176 -541 -126 -646 95 -15 33 -28 66 -28 73 0 9 106 12
496 12 l496 0 -4 138 c-4 116 -9 149 -32 217 -37 109 -87 188 -166 265 -78 76
-154 120 -260 149 -84 24 -247 34 -325 22z m237 -298 c67 -20 139 -89 171
-161 50 -110 79 -99 -290 -106 -369 -7 -341 -15 -302 88 60 161 239 237 421
179z"/>
<path d="M23410 8120 c-125 -13 -220 -57 -302 -142 l-58 -59 0 96 0 96 -42 -5
c-24 -2 -103 -5 -175 -5 l-133 -1 0 -665 0 -665 185 0 185 0 0 328 c0 180 4
353 10 385 20 124 83 218 178 264 47 23 73 28 154 31 l98 4 -2 172 c-3 143 -5
171 -18 172 -8 1 -44 -2 -80 -6z"/>
<path d="M25285 8121 c-389 -63 -633 -383 -586 -770 30 -242 157 -426 367
-530 231 -114 553 -97 758 40 189 126 283 297 293 535 7 149 -11 241 -69 364
-78 162 -247 297 -433 345 -71 18 -259 27 -330 16z m281 -341 c104 -51 166
-144 186 -280 27 -184 -73 -376 -224 -426 -66 -22 -172 -21 -240 2 -74 24
-166 117 -198 199 -34 86 -35 245 -2 326 25 63 85 137 136 168 94 59 236 63
342 11z"/>
<path d="M5505 7022 c-16 -21 -194 -244 -394 -496 -326 -411 -362 -460 -353
-479 6 -12 151 -195 323 -407 171 -212 344 -425 383 -473 l71 -89 3 221 2 221
378 0 c462 0 542 11 656 89 105 73 97 60 466 716 133 237 253 450 268 475 l26
45 -65 -58 c-79 -71 -174 -121 -275 -147 -73 -19 -113 -20 -765 -20 l-689 0
-2 220 -3 221 -30 -39z"/>
<path d="M3067 6563 c-132 -227 -230 -408 -249 -458 -19 -50 -23 -81 -23 -180
0 -109 2 -125 27 -177 53 -114 156 -193 283 -218 42 -7 259 -10 725 -8 l665 3
0 545 0 545 -697 3 -697 2 -34 -57z"/>
</g>
</svg>
